<svg width="34" height="29" viewBox="0 0 34 29" fill="none" xmlns="http://www.w3.org/2000/svg">
<rect width="34" height="29" rx="8" fill="#F38564" fill-opacity="0.17"/>
<path fill-rule="evenodd" clip-rule="evenodd" d="M11.271 4.112C10.461 4.218 10.033 4.413 9.727 4.712C9.422 5.012 9.223 5.432 9.114 6.225C9.002 7.042 9 8.124 9 9.675V18.245C9.39598 17.9746 9.83533 17.7741 10.299 17.652C10.827 17.513 11.443 17.513 12.346 17.514H25V9.676C25 8.124 24.998 7.042 24.886 6.225C24.777 5.432 24.578 5.012 24.273 4.712C23.967 4.413 23.539 4.218 22.729 4.112C21.895 4.002 20.791 4 19.207 4H14.793C13.209 4 12.105 4.002 11.271 4.112ZM11.759 8.595C11.759 8.147 12.129 7.784 12.586 7.784H21.414C21.631 7.78213 21.8398 7.86633 21.9948 8.01815C22.1498 8.16997 22.2384 8.37704 22.241 8.594C22.2386 8.81113 22.1502 9.01846 21.9952 9.17049C21.8401 9.32253 21.6311 9.40687 21.414 9.405H12.586C12.369 9.40687 12.1602 9.32267 12.0052 9.17085C11.8502 9.01903 11.7616 8.81196 11.759 8.595ZM12.586 11.568C12.369 11.5661 12.1602 11.6503 12.0052 11.8022C11.8502 11.954 11.7616 12.161 11.759 12.378C11.759 12.826 12.129 13.189 12.586 13.189H18.103C18.3201 13.1911 18.5293 13.1071 18.6845 12.9552C18.8397 12.8034 18.9284 12.5961 18.931 12.379C18.9286 12.1617 18.8401 11.9542 18.6848 11.8022C18.5296 11.6501 18.3203 11.5659 18.103 11.568H12.586Z" fill="#F38564"/>
<path d="M12.473 19.135H25C24.997 20.265 24.979 21.109 24.887 21.775C24.778 22.568 24.579 22.988 24.274 23.288C23.968 23.587 23.54 23.782 22.73 23.888C21.896 23.998 20.792 24 19.208 24H14.793C13.209 24 12.105 23.998 11.271 23.889C10.461 23.782 10.033 23.587 9.72703 23.288C9.42203 22.988 9.22303 22.568 9.11403 21.775C9.07303 21.475 9.04603 21.138 9.03003 20.755C9.16709 20.3804 9.39318 20.0448 9.68882 19.777C9.98445 19.5093 10.3408 19.3174 10.727 19.218C11.017 19.142 11.394 19.135 12.473 19.135Z" fill="#F38564"/>
</svg>
