<svg width="34" height="29" viewBox="0 0 34 29" fill="none" xmlns="http://www.w3.org/2000/svg">
<rect width="34" height="29" rx="8" fill="#59C75F" fill-opacity="0.17"/>
<path d="M27 9.53503V19C27 19.7652 26.7077 20.5015 26.1827 21.0583C25.6578 21.615 24.9399 21.9501 24.176 21.995L24 22H10C9.23479 22.0001 8.49849 21.7077 7.94174 21.1828C7.38499 20.6578 7.04989 19.9399 7.005 19.176L7 19V9.53503L16.445 15.832L16.561 15.898C16.6977 15.9648 16.8478 15.9995 17 15.9995C17.1522 15.9995 17.3023 15.9648 17.439 15.898L17.555 15.832L27 9.53503Z" fill="#59C75F"/>
<path d="M24 6C25.08 6 26.027 6.57 26.555 7.427L17 13.797L7.44501 7.427C7.6958 7.01982 8.0403 6.6785 8.44978 6.43149C8.85926 6.18448 9.32186 6.03894 9.79901 6.007L10 6H24Z" fill="#59C75F"/>
</svg>
