<svg width="34" height="29" viewBox="0 0 34 29" fill="none" xmlns="http://www.w3.org/2000/svg">
<rect width="34" height="29" rx="8" fill="#5772F6" fill-opacity="0.17"/>
<path fill-rule="evenodd" clip-rule="evenodd" d="M8 8C8 7.46957 8.21071 6.96086 8.58579 6.58579C8.96086 6.21071 9.46957 6 10 6H15.532C15.8251 6.00011 16.1147 6.06466 16.3801 6.18908C16.6455 6.3135 16.8804 6.49475 17.068 6.72L18.968 9H8V8ZM8 11V21C8 21.5304 8.21071 22.0391 8.58579 22.4142C8.96086 22.7893 9.46957 23 10 23H24C24.5304 23 25.0391 22.7893 25.4142 22.4142C25.7893 22.0391 26 21.5304 26 21V11H8Z" fill="#3A52C9"/>
</svg>
