<svg width="34" height="29" viewBox="0 0 34 29" fill="none" xmlns="http://www.w3.org/2000/svg">
<rect width="34" height="29" rx="8" fill="#3A52C9" fill-opacity="0.17"/>
<path d="M7.75499 16.716L8.27199 18.648C8.87599 20.903 9.17899 22.031 9.86399 22.762C10.4046 23.3388 11.1041 23.7424 11.874 23.922C12.85 24.15 13.978 23.848 16.234 23.244C18.488 22.64 19.616 22.338 20.347 21.653C20.4077 21.5956 20.4663 21.537 20.523 21.477C20.1824 21.4463 19.8439 21.3962 19.509 21.327C18.813 21.189 17.986 20.967 17.008 20.705L16.901 20.676L16.876 20.67C15.812 20.384 14.923 20.146 14.213 19.89C13.466 19.62 12.788 19.287 12.211 18.747C11.4173 18.0034 10.8619 17.0412 10.615 15.982C10.435 15.213 10.487 14.459 10.627 13.678C10.761 12.929 11.001 12.031 11.289 10.956L11.824 8.96197L11.842 8.89197C9.92199 9.40897 8.91099 9.71497 8.23699 10.346C7.65949 10.887 7.25545 11.5872 7.07599 12.358C6.84799 13.333 7.14999 14.461 7.75499 16.716Z" fill="#3A52C9"/>
<path fill-rule="evenodd" clip-rule="evenodd" d="M25.83 12.715L25.312 14.647C24.707 16.902 24.405 18.03 23.72 18.761C23.1795 19.3382 22.48 19.7422 21.71 19.922C21.6133 19.9447 21.515 19.962 21.415 19.974C20.5 20.087 19.383 19.788 17.351 19.244C15.096 18.639 13.968 18.337 13.237 17.652C12.6597 17.1112 12.2556 16.4114 12.076 15.641C11.848 14.665 12.15 13.538 12.755 11.283L13.272 9.35099L13.516 8.44599C13.971 6.77999 14.277 5.86299 14.864 5.23599C15.4046 4.65919 16.1041 4.25553 16.874 4.07599C17.85 3.84799 18.978 4.14999 21.234 4.75499C23.488 5.35899 24.616 5.66099 25.347 6.34499C25.9245 6.88605 26.3285 7.58625 26.508 8.35699C26.736 9.33299 26.434 10.46 25.83 12.715ZM16.051 11.805C16.0765 11.7098 16.1205 11.6206 16.1805 11.5425C16.2405 11.4644 16.3154 11.3988 16.4007 11.3496C16.486 11.3004 16.5802 11.2685 16.6779 11.2557C16.7756 11.2429 16.8749 11.2494 16.97 11.275L21.8 12.57C21.8976 12.5931 21.9897 12.6357 22.0706 12.695C22.1515 12.7544 22.2197 12.8294 22.2711 12.9156C22.3225 13.0018 22.3561 13.0974 22.3699 13.1968C22.3836 13.2963 22.3773 13.3974 22.3513 13.4943C22.3252 13.5913 22.28 13.682 22.2183 13.7611C22.1565 13.8402 22.0795 13.9062 21.9919 13.955C21.9042 14.0038 21.8076 14.0346 21.7078 14.0454C21.608 14.0562 21.5071 14.0469 21.411 14.018L16.581 12.724C16.389 12.6724 16.2254 12.5468 16.126 12.3747C16.0267 12.2025 15.9997 11.997 16.051 11.805ZM15.275 14.704C15.3266 14.512 15.4522 14.3484 15.6243 14.249C15.7964 14.1497 16.001 14.1227 16.193 14.174L19.091 14.951C19.1891 14.9736 19.2817 15.0158 19.3631 15.075C19.4446 15.1342 19.5133 15.2092 19.5652 15.2955C19.6171 15.3818 19.651 15.4777 19.665 15.5774C19.679 15.6771 19.6728 15.7786 19.6468 15.8759C19.6207 15.9732 19.5753 16.0642 19.5133 16.1435C19.4513 16.2229 19.374 16.2889 19.2859 16.3378C19.1978 16.3866 19.1008 16.4172 19.0007 16.4277C18.9005 16.4382 18.7993 16.4284 18.703 16.399L15.805 15.623C15.7098 15.5975 15.6206 15.5534 15.5425 15.4934C15.4644 15.4334 15.3988 15.3586 15.3496 15.2733C15.3004 15.1879 15.2685 15.0937 15.2557 14.9961C15.2429 14.8984 15.2494 14.7991 15.275 14.704Z" fill="#3A52C9"/>
</svg>
