<svg width="34" height="32" viewBox="0 0 34 32" fill="none" xmlns="http://www.w3.org/2000/svg">
<rect width="34" height="32" rx="8" fill="#FD683A" fill-opacity="0.17"/>
<path d="M23 12C23 12.5304 22.7893 13.0391 22.4142 13.4142C22.0391 13.7893 21.5304 14 21 14C20.4696 14 19.9609 13.7893 19.5858 13.4142C19.2107 13.0391 19 12.5304 19 12C19 11.4696 19.2107 10.9609 19.5858 10.5858C19.9609 10.2107 20.4696 10 21 10C21.5304 10 22.0391 10.2107 22.4142 10.5858C22.7893 10.9609 23 11.4696 23 12Z" fill="#E86D51"/>
<path fill-rule="evenodd" clip-rule="evenodd" d="M16.943 5.25002H17.057C19.366 5.25002 21.175 5.25002 22.587 5.44002C24.031 5.63402 25.171 6.04002 26.066 6.93402C26.961 7.82902 27.366 8.96902 27.56 10.414C27.75 11.825 27.75 13.634 27.75 15.943V16.031C27.75 17.94 27.75 19.502 27.646 20.774C27.542 22.054 27.329 23.121 26.851 24.009C26.6417 24.3997 26.38 24.752 26.066 25.066C25.171 25.961 24.031 26.366 22.586 26.56C21.175 26.75 19.366 26.75 17.057 26.75H16.943C14.634 26.75 12.825 26.75 11.413 26.56C9.969 26.366 8.829 25.96 7.934 25.066C7.141 24.273 6.731 23.286 6.514 22.06C6.299 20.857 6.26 19.36 6.252 17.502C6.25067 17.0287 6.25 16.528 6.25 16V15.942C6.25 13.633 6.25 11.824 6.44 10.412C6.634 8.96802 7.04 7.82802 7.934 6.93302C8.829 6.03802 9.969 5.63302 11.414 5.43902C12.825 5.24902 14.634 5.24902 16.943 5.24902M11.613 6.92502C10.335 7.09702 9.564 7.42502 8.995 7.99402C8.425 8.56402 8.098 9.33402 7.926 10.613C7.752 11.913 7.75 13.621 7.75 15.999V16.843L8.751 15.967C9.19007 15.5827 9.75882 15.3796 10.342 15.3989C10.9252 15.4182 11.4793 15.6585 11.892 16.071L16.182 20.361C16.5149 20.6939 16.9546 20.8986 17.4235 20.9392C17.8925 20.9798 18.3608 20.8537 18.746 20.583L19.044 20.373C19.5997 19.9826 20.2714 19.7922 20.9493 19.8331C21.6273 19.8739 22.2713 20.1436 22.776 20.598L25.606 23.145C25.892 22.547 26.061 21.761 26.151 20.652C26.249 19.447 26.25 17.945 26.25 15.999C26.25 13.621 26.248 11.913 26.074 10.613C25.902 9.33402 25.574 8.56302 25.005 7.99302C24.435 7.42402 23.665 7.09702 22.386 6.92502C21.086 6.75102 19.378 6.74902 17 6.74902C14.622 6.74902 12.913 6.75102 11.613 6.92502Z" fill="#E86D51"/>
</svg>
