<svg width="34" height="29" viewBox="0 0 34 29" fill="none" xmlns="http://www.w3.org/2000/svg">
<rect width="34" height="29" rx="8" fill="#239379" fill-opacity="0.17"/>
<path d="M24 10H10C8.34 10 7 11.34 7 13V17C7 18.1 7.9 19 9 19H11V21C11 22.1 11.9 23 13 23H21C22.1 23 23 22.1 23 21V19H25C26.1 19 27 18.1 27 17V13C27 11.34 25.66 10 24 10ZM20 21H14C13.45 21 13 20.55 13 20V16H21V20C21 20.55 20.55 21 20 21ZM24 14C23.45 14 23 13.55 23 13C23 12.45 23.45 12 24 12C24.55 12 25 12.45 25 13C25 13.55 24.55 14 24 14ZM22 5H12C11.45 5 11 5.45 11 6V8C11 8.55 11.45 9 12 9H22C22.55 9 23 8.55 23 8V6C23 5.45 22.55 5 22 5Z" fill="#239379"/>
</svg>
