<svg width="34" height="29" viewBox="0 0 34 29" fill="none" xmlns="http://www.w3.org/2000/svg">
<rect width="34" height="29" rx="8" fill="#1DBCAF" fill-opacity="0.17"/>
<path d="M22.6 14L8.5 8.9L9.2 7L24.8 12.7C25.1333 12.8333 25.4167 13.0667 25.65 13.4C25.8833 13.7333 26 14.1 26 14.5V20C26 20.55 25.8043 21.021 25.413 21.413C25.0217 21.805 24.5507 22.0007 24 22H10C9.45 22 8.97933 21.8043 8.588 21.413C8.19667 21.0217 8.00067 20.5507 8 20V16C8 15.45 8.196 14.9793 8.588 14.588C8.98 14.1967 9.45067 14.0007 10 14H22.6ZM15 19H23V17H15V19ZM12 19C12.2833 19 12.521 18.904 12.713 18.712C12.905 18.52 13.0007 18.2827 13 18C12.9993 17.7173 12.9033 17.48 12.712 17.288C12.5207 17.096 12.2833 17 12 17C11.7167 17 11.4793 17.096 11.288 17.288C11.0967 17.48 11.0007 17.7173 11 18C10.9993 18.2827 11.0953 18.5203 11.288 18.713C11.4807 18.9057 11.718 19.0013 12 19Z" fill="#1DBCAF"/>
</svg>
