<svg width="34" height="29" viewBox="0 0 34 29" fill="none" xmlns="http://www.w3.org/2000/svg">
<rect width="34" height="29" rx="8" fill="#5874FF" fill-opacity="0.17"/>
<path d="M21.36 16C21.44 15.34 21.5 14.68 21.5 14C21.5 13.32 21.44 12.66 21.36 12H24.74C24.9 12.64 25 13.31 25 14C25 14.69 24.9 15.36 24.74 16M19.59 21.56C20.19 20.45 20.65 19.25 20.97 18H23.92C22.9512 19.6683 21.4141 20.932 19.59 21.56ZM19.34 16H14.66C14.56 15.34 14.5 14.68 14.5 14C14.5 13.32 14.56 12.65 14.66 12H19.34C19.43 12.65 19.5 13.32 19.5 14C19.5 14.68 19.43 15.34 19.34 16ZM17 21.96C16.17 20.76 15.5 19.43 15.09 18H18.91C18.5 19.43 17.83 20.76 17 21.96ZM13 10H10.08C11.0386 8.32703 12.5747 7.06124 14.4 6.44C13.8 7.55 13.35 8.75 13 10ZM10.08 18H13C13.35 19.25 13.8 20.45 14.4 21.56C12.5783 20.9323 11.0443 19.6682 10.08 18ZM9.26 16C9.1 15.36 9 14.69 9 14C9 13.31 9.1 12.64 9.26 12H12.64C12.56 12.66 12.5 13.32 12.5 14C12.5 14.68 12.56 15.34 12.64 16M17 6.03C17.83 7.23 18.5 8.57 18.91 10H15.09C15.5 8.57 16.17 7.23 17 6.03ZM23.92 10H20.97C20.6565 8.76161 20.1931 7.56611 19.59 6.44C21.43 7.07 22.96 8.34 23.92 10ZM17 4C11.47 4 7 8.5 7 14C7 16.6522 8.05357 19.1957 9.92893 21.0711C10.8575 21.9997 11.9599 22.7362 13.1732 23.2388C14.3864 23.7413 15.6868 24 17 24C19.6522 24 22.1957 22.9464 24.0711 21.0711C25.9464 19.1957 27 16.6522 27 14C27 12.6868 26.7413 11.3864 26.2388 10.1732C25.7362 8.95991 24.9997 7.85752 24.0711 6.92893C23.1425 6.00035 22.0401 5.26375 20.8268 4.7612C19.6136 4.25866 18.3132 4 17 4Z" fill="#5874FF"/>
</svg>
